<?xml version="1.0" encoding="UTF-8" standalone="no"?>
<svg
   xmlns:dc="http://purl.org/dc/elements/1.1/"
   xmlns:cc="http://creativecommons.org/ns#"
   xmlns:rdf="http://www.w3.org/1999/02/22-rdf-syntax-ns#"
   xmlns:svg="http://www.w3.org/2000/svg"
   xmlns="http://www.w3.org/2000/svg"
   xmlns:sodipodi="http://sodipodi.sourceforge.net/DTD/sodipodi-0.dtd"
   xmlns:inkscape="http://www.inkscape.org/namespaces/inkscape"
   version="1.1"
   id="svg2"
   xml:space="preserve"
   width="2560"
   height="1440"
   viewBox="0 0 2560 1440"
   sodipodi:docname="Fournine cloud - Web variant.ai"><metadata
     id="metadata8"><rdf:RDF><cc:Work
         rdf:about=""><dc:format>image/svg+xml</dc:format><dc:type
           rdf:resource="http://purl.org/dc/dcmitype/StillImage" /></cc:Work></rdf:RDF></metadata><defs
     id="defs6"><clipPath
       clipPathUnits="userSpaceOnUse"
       id="clipPath22"><path
         d="M 0,1080 H 1920 V 0 H 0 Z"
         id="path20" /></clipPath></defs><sodipodi:namedview
     pagecolor="#ffffff"
     bordercolor="#666666"
     borderopacity="1"
     objecttolerance="10"
     gridtolerance="10"
     guidetolerance="10"
     inkscape:pageopacity="0"
     inkscape:pageshadow="2"
     inkscape:window-width="640"
     inkscape:window-height="480"
     id="namedview4" /><g
     id="g10"
     inkscape:groupmode="layer"
     inkscape:label="Fournine cloud - Web variant"
     transform="matrix(1.3333333,0,0,-1.3333333,0,1440)"><g
       id="g12"
       transform="translate(583.5731,613.6982)"><path
         d="m 0,0 v -11.918 h -65.23 v -56.24 h 56.45 v -11.499 h -56.45 v -67.739 h -14.843 l 0,147.396 z"
         style="fill:#00acac;fill-opacity:1;fill-rule:nonzero;stroke:none"
         id="path14" /></g><g
       id="g16"><g
         id="g18"
         clip-path="url(#clipPath22)"><g
           id="g24"
           transform="translate(689.0487,594.2554)"><path
             d="m 0,0 c -8.572,-5.02 -15.335,-12.199 -20.28,-21.536 -4.949,-9.34 -7.422,-20.211 -7.422,-32.616 0,-12.405 2.473,-23.278 7.422,-32.613 4.945,-9.34 11.708,-16.519 20.28,-21.536 8.572,-5.017 18.222,-7.528 28.957,-7.528 10.731,0 20.385,2.511 28.956,7.528 8.572,5.017 15.33,12.196 20.279,21.536 4.947,9.335 7.422,20.208 7.422,32.613 0,12.405 -2.475,23.276 -7.422,32.616 C 73.243,-12.199 66.485,-5.02 57.913,0 49.342,5.017 39.688,7.524 28.957,7.524 18.222,7.524 8.572,5.017 0,0 m 65.753,11.499 c 10.871,-6.414 19.408,-15.335 25.611,-26.763 6.2,-11.431 9.304,-24.392 9.304,-38.888 0,-14.496 -3.104,-27.492 -9.304,-38.991 -6.203,-11.499 -14.74,-20.456 -25.611,-26.866 -10.872,-6.411 -23.139,-9.616 -36.796,-9.616 -13.662,0 -25.926,3.205 -36.798,9.616 -10.871,6.41 -19.411,15.367 -25.611,26.866 -6.204,11.499 -9.303,24.495 -9.303,38.991 0,14.496 3.099,27.457 9.303,38.888 6.2,11.428 14.74,20.349 25.611,26.763 10.872,6.408 23.136,9.615 36.798,9.615 13.657,0 25.924,-3.207 36.796,-9.615"
             style="fill:#00acac;fill-opacity:1;fill-rule:nonzero;stroke:none"
             id="path26" /></g><g
           id="g28"
           transform="translate(874.1786,613.6982)"><path
             d="m 0,0 v -89.275 c 0,-15.751 3.45,-27.319 10.349,-34.704 6.899,-7.391 16.34,-11.083 28.329,-11.083 11.986,0 21.358,3.692 28.12,11.083 6.76,7.385 10.14,18.953 10.14,34.704 V 0 h 14.635 v -89.275 c 0,-19.933 -4.808,-34.846 -14.425,-44.742 -9.618,-9.897 -22.512,-14.844 -38.678,-14.844 -16.17,0 -29.062,4.947 -38.679,14.844 -9.617,9.896 -14.427,24.809 -14.427,44.742 l 0,89.275 z"
             style="fill:#00acac;fill-opacity:1;fill-rule:nonzero;stroke:none"
             id="path30" /></g><g
           id="g32"
           transform="translate(1055.4423,538.8516)"><path
             d="m 0,0 h 29.271 c 23.693,0 35.542,10.244 35.542,30.731 0,20.908 -11.849,31.361 -35.542,31.361 H 0 Z M 64.186,-72.55 23.835,-11.083 H 0 V -72.55 H -14.843 V 74.847 h 45.158 c 16.586,0 28.957,-3.904 37.111,-11.709 C 75.579,55.33 79.657,44.809 79.657,31.567 79.657,19.301 76.205,9.544 69.307,2.297 62.409,-4.949 52.405,-9.272 39.306,-10.664 L 80.909,-72.55 Z"
             style="fill:#00acac;fill-opacity:1;fill-rule:nonzero;stroke:none"
             id="path34" /></g><g
           id="g36"
           transform="translate(1313.8534,466.3018)"><path
             d="M 0,0 H -14.845 L -95.544,123.144 V 0 h -14.845 v 147.187 h 14.845 L -14.845,23.834 V 147.187 H 0 Z"
             style="fill:#00acac;fill-opacity:1;fill-rule:nonzero;stroke:none"
             id="path38" /></g><path
           d="m 1404.381,466.302 h -14.845 v 147.396 h 14.845 z"
           style="fill:#00acac;fill-opacity:1;fill-rule:nonzero;stroke:none"
           id="path40" /><g
           id="g42"
           transform="translate(1590.453,466.3018)"><path
             d="m 0,0 h -14.845 l -80.7,123.144 V 0 h -14.845 v 147.187 h 14.845 l 80.7,-123.353 V 147.187 H 0 Z"
             style="fill:#00acac;fill-opacity:1;fill-rule:nonzero;stroke:none"
             id="path44" /></g><g
           id="g46"
           transform="translate(1680.9803,601.7798)"><path
             d="M 0,0 V -55.611 H 57.494 V -67.11 H 0 v -56.243 h 63.767 v -12.125 H -14.845 V 11.918 H 63.767 V 0 Z"
             style="fill:#00acac;fill-opacity:1;fill-rule:nonzero;stroke:none"
             id="path48" /></g><g
           id="g50"
           transform="translate(267.7264,611.8687)"><path
             d="m 0,0 c -2.91,-9.385 -9.302,-17.066 -17.986,-21.646 -8.696,-4.578 -18.645,-5.501 -28.03,-2.59 -9.385,2.911 -17.066,9.302 -21.646,17.986 -4.578,8.697 -5.501,18.645 -2.59,28.03 2.911,9.386 9.302,17.067 17.986,21.646 6.364,3.343 13.393,4.735 20.375,4.103 2.577,-0.233 5.128,-0.737 7.656,-1.512 C -14.851,43.105 -7.17,36.715 -2.59,28.03 1.989,19.334 2.9,9.387 0,0 m 51.861,-49.541 c 0.047,18.018 -3.296,36.603 -9.947,53.609 -12.345,31.521 -33.673,53.398 -60.068,61.573 -30.184,9.36 -62.371,-7.583 -71.722,-37.779 -9.361,-30.184 7.582,-62.372 37.778,-71.722 3.923,-1.221 7.874,-1.989 11.818,-2.345 26.349,-2.384 51.763,13.851 59.905,40.123 2.396,7.735 3.063,15.603 2.223,23.186 6.291,-6.766 11.741,-14.39 16.153,-22.786 4.309,-8.171 7.487,-16.738 9.52,-25.513 1.947,-8.409 0.621,-17.28 -3.742,-24.728 L 54.02,-56.85 c -0.756,2.255 -1.469,4.679 -2.159,7.309"
             style="fill:#ed403c;fill-opacity:1;fill-rule:nonzero;stroke:none"
             id="path52" /></g><g
           id="g54"
           transform="translate(243.4706,492.4336)"><path
             d="m 0,0 c 9.386,-2.911 17.066,-9.302 21.646,-17.986 4.579,-8.697 5.501,-18.645 2.59,-28.031 -2.911,-9.384 -9.301,-17.065 -17.986,-21.645 -8.696,-4.578 -18.645,-5.501 -28.03,-2.59 -9.385,2.911 -17.066,9.302 -21.646,17.986 -3.343,6.363 -4.734,13.392 -4.102,20.375 0.232,2.577 0.737,5.128 1.512,7.656 2.912,9.384 9.302,17.065 17.987,21.645 C -19.334,1.988 -9.386,2.899 0,0 M 49.541,51.861 C 31.524,51.908 12.938,48.565 -4.067,41.913 -35.589,29.569 -57.465,8.241 -65.641,-18.154 c -9.36,-30.184 7.583,-62.371 37.78,-71.722 30.183,-9.361 62.371,7.582 71.721,37.778 1.221,3.922 1.989,7.874 2.346,11.818 2.384,26.349 -13.852,51.763 -40.124,59.904 -7.734,2.397 -15.603,3.064 -23.186,2.224 6.766,6.291 14.39,11.741 22.787,16.153 8.171,4.309 16.738,7.487 25.513,9.519 8.409,1.947 17.28,0.621 24.728,-3.741 l 0.927,10.241 c -2.255,-0.756 -4.679,-1.469 -7.31,-2.159"
             style="fill:#f9a51a;fill-opacity:1;fill-rule:nonzero;stroke:none"
             id="path56" /></g><g
           id="g58"
           transform="translate(362.8114,468.1309)"><path
             d="m 0,0 c 2.911,9.386 9.302,17.066 17.986,21.646 8.697,4.579 18.645,5.501 28.031,2.59 9.384,-2.911 17.065,-9.301 21.645,-17.986 4.578,-8.696 5.501,-18.645 2.59,-28.03 -2.911,-9.385 -9.302,-17.066 -17.986,-21.646 -6.363,-3.343 -13.392,-4.734 -20.375,-4.102 -2.577,0.232 -5.128,0.737 -7.655,1.512 C 14.851,-43.104 7.17,-36.714 2.59,-28.029 -1.988,-19.334 -2.899,-9.386 0,0 m -51.861,49.541 c -0.046,-18.018 3.296,-36.603 9.948,-53.608 12.344,-31.522 33.672,-53.398 60.067,-61.574 30.184,-9.36 62.372,7.583 71.722,37.78 C 99.237,2.322 82.294,34.51 52.098,43.86 48.176,45.081 44.224,45.849 40.28,46.206 13.931,48.59 -11.483,32.354 -19.624,6.082 c -2.397,-7.734 -3.063,-15.603 -2.224,-23.186 -6.291,6.766 -11.741,14.39 -16.153,22.787 -4.309,8.171 -7.487,16.738 -9.52,25.513 -1.946,8.409 -0.621,17.28 3.742,24.728 l -10.241,0.927 c 0.756,-2.255 1.469,-4.679 2.159,-7.31"
             style="fill:#00acac;fill-opacity:1;fill-rule:nonzero;stroke:none"
             id="path60" /></g><g
           id="g62"
           transform="translate(387.1131,587.1123)"><path
             d="m 0,0 c -9.386,2.911 -17.066,9.302 -21.646,17.986 -4.579,8.697 -5.501,18.645 -2.59,28.031 2.911,9.385 9.301,17.066 17.986,21.645 8.696,4.579 18.645,5.502 28.03,2.59 C 31.165,67.341 38.846,60.951 43.426,52.266 46.769,45.903 48.16,38.874 47.528,31.891 47.296,29.315 46.791,26.763 46.016,24.236 43.104,14.851 36.714,7.17 28.029,2.59 19.334,-1.988 9.386,-2.899 0,0 m -49.541,-51.86 c 18.017,-0.047 36.603,3.295 53.608,9.947 31.522,12.345 53.398,33.672 61.574,60.068 9.36,30.183 -7.583,62.371 -37.78,71.722 -30.183,9.36 -62.371,-7.583 -71.721,-37.779 -1.221,-3.922 -1.989,-7.874 -2.346,-11.817 -2.384,-26.35 13.852,-51.764 40.124,-59.905 7.734,-2.397 15.603,-3.063 23.186,-2.223 -6.766,-6.291 -14.39,-11.741 -22.787,-16.154 -8.171,-4.308 -16.738,-7.487 -25.513,-9.519 -8.409,-1.947 -17.28,-0.621 -24.728,3.741 l -0.927,-10.24 c 2.255,0.756 4.679,1.468 7.31,2.159"
             style="fill:#204295;fill-opacity:1;fill-rule:nonzero;stroke:none"
             id="path64" /></g><g
           id="g66"
           transform="translate(354.617,536.6572)"><path
             d="m 0,0 c -25.841,2.338 -40.505,-9.894 -42.843,-35.734 2.338,25.84 -9.893,40.505 -35.733,42.843 25.84,-2.338 40.505,9.893 42.843,35.733 C -38.071,17.002 -25.841,2.338 0,0"
             style="fill:#737373;fill-opacity:1;fill-rule:nonzero;stroke:none"
             id="path68" /></g></g></g></g></svg>
